<svg xmlns="http://www.w3.org/2000/svg" width="608" height="439" viewBox="0 0 608 439">
<g>
<path d="M 0.00 0.00 L 608.00 0.00 L 608.00 439.00 L 0.00 439.00 ZM 300.80 240.28 C451.17,390.64 473.91,413.00 476.44,413.00 C480.33,413.00 483.00,410.39 483.00,406.60 C482.99,403.85 478.26,398.77 441.51,362.00 C418.69,339.17 400.02,320.27 400.01,320.00 C400.01,319.73 402.36,318.19 405.25,316.59 C424.68,305.83 448.63,285.40 463.91,266.56 C474.08,254.02 483.00,239.70 483.00,235.92 C483.00,229.89 468.65,209.09 453.49,193.17 C415.43,153.17 366.40,131.11 311.50,129.29 C285.04,128.42 256.23,133.10 233.01,142.06 L 224.76 145.24 L 180.97 101.46 C156.89,77.38 136.43,57.26 135.52,56.75 C133.07,55.38 129.26,56.68 127.39,59.52 C126.06,61.55 125.97,62.53 126.91,64.79 C127.55,66.32 205.79,145.29 300.80,240.28 ZM 413.45 295.51 C408.58,298.99 401.18,303.65 397.00,305.88 L 389.40 309.93 L 375.46 295.96 C363.26,283.73 361.67,281.77 362.74,280.24 C370.24,269.52 375.33,256.51 377.03,243.69 C381.68,208.77 358.20,174.77 323.00,165.46 C314.40,163.18 295.79,163.13 287.40,165.36 C279.42,167.48 270.93,171.27 264.21,175.73 L 258.79 179.33 L 247.42 167.92 C241.16,161.64 236.03,156.19 236.02,155.82 C235.97,154.08 259.01,147.21 272.37,144.98 C293.45,141.47 320.98,141.87 342.31,146.00 C376.45,152.61 412.00,171.17 436.86,195.36 C447.20,205.42 458.91,219.27 464.85,228.43 L 469.33 235.37 L 467.01 239.43 C456.63,257.56 435.27,279.93 413.45,295.51 ZM 283.00 341.93 C297.02,344.07 325.41,342.87 343.00,339.40 C364.26,335.20 371.00,332.26 371.00,327.15 C371.00,321.29 365.89,319.67 356.50,322.56 C338.30,328.15 310.45,330.99 291.10,329.23 C233.00,323.97 183.06,295.58 148.96,248.43 C148.72,248.09 148.48,247.77 148.26,247.46 C143.44,240.80 141.42,238.01 141.58,235.36 C141.71,233.31 143.14,231.35 145.58,227.78 C160.55,205.87 177.92,188.56 199.65,173.90 C207.69,168.47 209.36,166.30 208.41,162.49 C207.69,159.62 205.28,158.00 201.72,158.00 C196.40,158.00 172.24,176.78 156.47,193.17 C143.30,206.86 126.00,231.25 126.00,236.13 C126.00,238.16 138.29,256.80 146.00,266.46 C165.83,291.29 193.36,312.43 223.03,325.58 C242.33,334.13 255.54,337.73 283.00,341.93 ZM 358.53 261.15 C357.13,264.09 354.98,267.75 353.75,269.27 L 351.50 272.03 L 310.25 230.74 C287.56,208.03 269.00,189.15 269.00,188.78 C269.00,187.33 282.30,180.76 289.17,178.82 C295.25,177.10 298.26,176.85 307.95,177.29 C315.06,177.61 321.23,178.46 324.00,179.48 C340.00,185.43 352.36,196.65 358.91,211.19 C365.89,226.68 365.75,245.95 358.53,261.15 ZM 292.50 307.50 C301.88,309.27 308.34,309.28 317.30,307.57 C333.53,304.46 340.90,299.46 338.14,293.41 C336.45,289.69 332.81,289.44 323.16,292.38 C307.11,297.28 289.00,295.36 275.25,287.30 C268.90,283.58 259.77,274.86 255.53,268.48 C245.14,252.83 242.85,232.08 249.54,214.31 C251.66,208.66 251.83,207.41 250.74,205.13 C249.65,202.87 248.85,202.50 244.99,202.50 C240.66,202.50 240.42,202.67 238.28,207.00 C234.38,214.91 232.62,223.71 232.58,235.50 C232.55,248.88 234.24,255.91 240.66,269.00 C244.56,276.95 246.72,279.89 253.91,287.00 C265.49,298.46 277.04,304.59 292.50,307.50 Z" fill="rgb(0,0,0)"/>
<path d="M 300.80 240.28 C205.79,145.29 127.55,66.32 126.91,64.79 C125.97,62.53 126.06,61.55 127.39,59.52 C129.26,56.68 133.07,55.38 135.52,56.75 C136.43,57.26 156.89,77.38 180.97,101.46 L 224.76 145.24 L 233.01 142.06 C256.23,133.10 285.04,128.42 311.50,129.29 C366.40,131.11 415.43,153.17 453.49,193.17 C468.65,209.09 483.00,229.89 483.00,235.92 C483.00,239.70 474.08,254.02 463.91,266.56 C448.63,285.40 424.68,305.83 405.25,316.59 C402.36,318.19 400.01,319.73 400.01,320.00 C400.02,320.27 418.69,339.17 441.51,362.00 C478.26,398.77 482.99,403.85 483.00,406.60 C483.00,410.39 480.33,413.00 476.44,413.00 C473.91,413.00 451.17,390.64 300.80,240.28 ZM 413.45 295.51 C435.27,279.93 456.63,257.56 467.01,239.43 L 469.33 235.37 L 464.85 228.43 C458.91,219.27 447.20,205.42 436.86,195.36 C412.00,171.17 376.45,152.61 342.31,146.00 C320.98,141.87 293.45,141.47 272.37,144.98 C259.01,147.21 235.97,154.08 236.02,155.82 C236.03,156.19 241.16,161.64 247.42,167.92 L 258.79 179.33 L 264.21 175.73 C270.93,171.27 279.42,167.48 287.40,165.36 C295.79,163.13 314.40,163.18 323.00,165.46 C358.20,174.77 381.68,208.77 377.03,243.69 C375.33,256.51 370.24,269.52 362.74,280.24 C361.67,281.77 363.26,283.73 375.46,295.96 L 389.40 309.93 L 397.00 305.88 C401.18,303.65 408.58,298.99 413.45,295.51 ZM 358.53 261.15 C365.75,245.95 365.89,226.68 358.91,211.19 C352.36,196.65 340.00,185.43 324.00,179.48 C321.23,178.46 315.06,177.61 307.95,177.29 C298.26,176.85 295.25,177.10 289.17,178.82 C282.30,180.76 269.00,187.33 269.00,188.78 C269.00,189.15 287.56,208.03 310.25,230.74 L 351.50 272.03 L 353.75 269.27 C354.98,267.75 357.13,264.09 358.53,261.15 ZM 283.00 341.93 C255.54,337.73 242.33,334.13 223.03,325.58 C193.36,312.43 165.83,291.29 146.00,266.46 C138.29,256.80 126.00,238.16 126.00,236.13 C126.00,231.25 143.30,206.86 156.47,193.17 C172.24,176.78 196.40,158.00 201.72,158.00 C205.28,158.00 207.69,159.62 208.41,162.49 C209.36,166.30 207.69,168.47 199.65,173.90 C177.92,188.56 160.55,205.87 145.58,227.78 C139.81,236.22 139.72,235.66 148.96,248.43 C183.06,295.58 233.00,323.97 291.10,329.23 C310.45,330.99 338.30,328.15 356.50,322.56 C365.89,319.67 371.00,321.29 371.00,327.15 C371.00,332.26 364.26,335.20 343.00,339.40 C325.41,342.87 297.02,344.07 283.00,341.93 ZM 292.50 307.50 C277.04,304.59 265.49,298.46 253.91,287.00 C246.72,279.89 244.56,276.95 240.66,269.00 C234.24,255.91 232.55,248.88 232.58,235.50 C232.62,223.71 234.38,214.91 238.28,207.00 C240.42,202.67 240.66,202.50 244.99,202.50 C248.85,202.50 249.65,202.87 250.74,205.13 C251.83,207.41 251.66,208.66 249.54,214.31 C242.85,232.08 245.14,252.83 255.53,268.48 C259.77,274.86 268.90,283.58 275.25,287.30 C289.00,295.36 307.11,297.28 323.16,292.38 C332.81,289.44 336.45,289.69 338.14,293.41 C340.90,299.46 333.53,304.46 317.30,307.57 C308.34,309.28 301.88,309.27 292.50,307.50 Z" fill="rgb(249,249,249)"/>
</g>
</svg>